<?xml version="1.0" encoding="UTF-8"?>
<svg width="600" height="900" xmlns="http://www.w3.org/2000/svg">
  <defs>
    <linearGradient id="grad4" x1="0%" y1="0%" x2="0%" y2="100%">
      <stop offset="0%" style="stop-color:#8B0000;stop-opacity:1" />
      <stop offset="100%" style="stop-color:#DC143C;stop-opacity:1" />
    </linearGradient>
    <radialGradient id="vignette4" cx="50%" cy="50%" r="80%">
      <stop offset="0%" style="stop-color:rgb(0,0,0);stop-opacity:0" />
      <stop offset="100%" style="stop-color:rgb(0,0,0);stop-opacity:0.7" />
    </radialGradient>
    <filter id="shadow">
      <feDropShadow dx="3" dy="3" stdDeviation="8" flood-opacity="0.8"/>
    </filter>
  </defs>
  
  <!-- Background gradient -->
  <rect width="600" height="900" fill="url(#grad4)"/>
  
  <!-- Diagonal pattern -->
  <g opacity="0.1" stroke="white" stroke-width="2" fill="none">
    <line x1="-900" y1="0" x2="0" y2="900"/>
    <line x1="-860" y1="0" x2="40" y2="900"/>
    <line x1="-820" y1="0" x2="80" y2="900"/>
    <line x1="-780" y1="0" x2="120" y2="900"/>
    <line x1="-740" y1="0" x2="160" y2="900"/>
    <line x1="-700" y1="0" x2="200" y2="900"/>
    <line x1="-660" y1="0" x2="240" y2="900"/>
    <line x1="-620" y1="0" x2="280" y2="900"/>
    <line x1="-580" y1="0" x2="320" y2="900"/>
    <line x1="-540" y1="0" x2="360" y2="900"/>
    <line x1="-500" y1="0" x2="400" y2="900"/>
    <line x1="-460" y1="0" x2="440" y2="900"/>
    <line x1="-420" y1="0" x2="480" y2="900"/>
    <line x1="-380" y1="0" x2="520" y2="900"/>
    <line x1="-340" y1="0" x2="560" y2="900"/>
    <line x1="-300" y1="0" x2="600" y2="900"/>
    <line x1="-260" y1="0" x2="640" y2="900"/>
    <line x1="-220" y1="0" x2="680" y2="900"/>
    <line x1="-180" y1="0" x2="720" y2="900"/>
    <line x1="-140" y1="0" x2="760" y2="900"/>
    <line x1="-100" y1="0" x2="800" y2="900"/>
    <line x1="-60" y1="0" x2="840" y2="900"/>
    <line x1="-20" y1="0" x2="880" y2="900"/>
    <line x1="20" y1="0" x2="920" y2="900"/>
    <line x1="60" y1="0" x2="960" y2="900"/>
    <line x1="100" y1="0" x2="1000" y2="900"/>
    <line x1="140" y1="0" x2="1040" y2="900"/>
    <line x1="180" y1="0" x2="1080" y2="900"/>
    <line x1="220" y1="0" x2="1120" y2="900"/>
    <line x1="260" y1="0" x2="1160" y2="900"/>
  </g>
  
  <!-- Vignette overlay -->
  <rect width="600" height="900" fill="url(#vignette4)"/>
  
  <!-- Frame borders -->
  <rect x="20" y="20" width="560" height="860" fill="none" stroke="rgba(255,255,255,0.3)" stroke-width="8"/>
  <rect x="30" y="30" width="540" height="840" fill="none" stroke="rgba(255,215,0,0.5)" stroke-width="3"/>
  
  <!-- Series branding -->
  <text x="300" y="80" font-family="Arial, sans-serif" font-size="24" font-weight="bold" fill="rgba(255,255,255,0.95)" text-anchor="middle">
    THE PIMPIRE CHRONICLES
  </text>
  <text x="300" y="120" font-family="Arial, sans-serif" font-size="32" fill="rgba(255,255,255,0.95)" text-anchor="middle">
    ◆
  </text>
  
  <!-- Main title -->
  <g filter="url(#shadow)">
    <text x="300" y="390" font-family="Arial, sans-serif" font-size="60" font-weight="bold" fill="white" text-anchor="middle">The Trap</text>
    <text x="300" y="460" font-family="Arial, sans-serif" font-size="60" font-weight="bold" fill="white" text-anchor="middle">Card</text>
  </g>
  
  <!-- Subtitle -->
  <text x="300" y="550" font-family="Arial, sans-serif" font-size="28" font-style="italic" fill="#FFD700" text-anchor="middle" filter="url(#shadow)">
    Episode 4
  </text>
  
  <!-- Theme icon -->
  <text x="300" y="720" font-family="Arial, sans-serif" font-size="120" fill="white" text-anchor="middle" filter="url(#shadow)">
    👁️
  </text>
  
  <!-- Bottom tagline -->
  <text x="300" y="820" font-family="Arial, sans-serif" font-size="20" font-weight="bold" fill="rgba(255,255,255,0.9)" text-anchor="middle" filter="url(#shadow)">
    DIAMONDZ PLAYHOUSE
  </text>
  
  <!-- Episode badge -->
  <circle cx="520" cy="80" r="35" fill="rgba(255,215,0,0.9)"/>
  <text x="520" y="90" font-family="Arial, sans-serif" font-size="28" font-weight="bold" fill="black" text-anchor="middle">
    4
  </text>
</svg>